<?xml version="1.0" encoding="UTF-8"?><svg version="1.1" width="178px" height="43px" viewBox="0 0 178.0 43.0" xmlns="http://www.w3.org/2000/svg" xmlns:xlink="http://www.w3.org/1999/xlink"><defs><clipPath id="i0"><path d="M178,0 L178,29.0330961 L0,29.0330961 L0,0 L178,0 Z"></path></clipPath><clipPath id="i1"><path d="M30.7122409,0 L25.0336912,28.8964278 L18.0752144,28.8964278 L22.4197556,6.60761418 L15.8248261,6.61652733 L12.2885018,23.6139017 C11.486294,27.1583638 8.65302815,29.4876667 0,28.9588199 L1.20781851,22.3957714 C2.41864155,22.3957714 4.21234218,22.5651213 5.22186213,21.7867063 C6.17429613,20.987494 6.14425089,20.5745181 6.64300182,19.130588 L9.16379718,6.60464313 L9.15177908,6.60464313 L10.4497333,0 L30.7122409,0 Z"></path></clipPath><clipPath id="i2"><path d="M12.4056782,0 L17.9189791,17.8352104 L30.4238066,0 L37.1419215,0 L31.4543582,29.0301251 L24.7422524,29.0301251 L27.3171292,15.8832308 L17.8198299,29.0301251 L13.6285193,29.0301251 L9.28397812,15.8862019 L6.70910134,29.0301251 L0,29.0301251 L5.6875633,0 L12.4056782,0 Z"></path></clipPath><clipPath id="i3"><path d="M30.3757343,0 L29.071771,6.62841152 L10.9755249,6.62841152 L7.88086557,22.372003 L19.1928972,22.372003 C19.8238471,22.372003 20.4007157,22.1521454 20.9265073,21.709459 C21.452299,21.2667726 21.7767875,20.7290126 21.9029775,20.093208 C22.026163,19.4574034 21.9149956,18.9196435 21.5634663,18.4769571 C21.2119371,18.0342707 20.7191952,17.814413 20.0882452,17.814413 L12.628013,17.8560077 L13.7817501,11.1860015 L21.3922085,11.1860015 C23.8318817,11.1860015 25.7457633,12.056519 27.1308487,13.794583 C28.5159341,15.535618 28.9666127,17.633179 28.4828843,20.090237 C27.999156,22.547295 26.7222335,24.647827 24.6551212,26.385891 C22.5850044,28.126926 20.3316116,28.9944725 17.8919384,28.9944725 L0,28.9944725 L5.69657687,0 L30.3757343,0 Z"></path></clipPath><clipPath id="i4"><path d="M30.3817433,0 L29.07778,6.62841152 L10.981534,6.62841152 L10.0861859,11.1860015 L24.0692391,11.1860015 L22.7652758,17.814413 L8.78222267,17.814413 L7.88687462,22.372003 L25.9831207,22.372003 L24.6791574,29.0004146 L0,29.0004146 L5.70258592,0 L30.3817433,0 Z"></path></clipPath><clipPath id="i5"><path d="M28.0382148,0 L26.7342516,6.62841152 L16.6570792,6.62841152 L12.2584566,29.0004146 L5.67854973,29.0004146 L10.0771724,6.62841152 L0,6.62841152 L1.30396327,0 L28.0382148,0 Z"></path></clipPath><clipPath id="i6"><path d="M30.8534535,0 L29.5524948,6.63435362 L11.0987104,6.63435362 L10.2033624,11.1949147 L24.4628317,11.1949147 L23.1618729,17.8292683 L8.90240362,17.8292683 L8.00705557,22.3898293 L26.4608399,22.3898293 L25.1598812,29.024183 L0,29.0301251 L5.69056782,0 L30.8534535,0 Z"></path></clipPath><clipPath id="i7"><path d="M6.46873945,0 C7.80575248,0 8.83930862,0.288191805 9.56940787,0.867546466 C10.2995071,1.44393008 10.666059,2.2550266 10.666059,3.29489394 C10.666059,4.2218614 10.4527378,5.01810267 10.0260955,5.68955987 C9.59945311,6.36101707 8.98953481,6.87500864 8.19634056,7.23450563 C7.40314631,7.59400263 6.46873945,7.7722656 5.3961245,7.7722656 L2.69806225,7.7722656 L2.05208966,10.9245492 L0,10.9245492 L2.20832489,0 L6.46873945,0 Z M6.24940922,1.71726663 L3.91489434,1.71726663 L3.046587,6.05499896 L5.47724664,6.05499896 C6.4747485,6.05499896 7.24691108,5.8351413 7.78772534,5.39245492 C8.3285396,4.94976853 8.59894673,4.31396393 8.59894673,3.48207006 C8.59894673,2.89974435 8.39764364,2.46002902 7.99203295,2.16292407 C7.58642225,1.86581911 7.00654919,1.71726663 6.24940922,1.71726663 Z"></path></clipPath><clipPath id="i8"><path d="M9.2178786,0 L11.9640132,10.9245492 L9.92694619,10.9245492 L9.3440686,8.396186 L3.78870434,8.396186 L2.19330228,10.9245492 L0,10.9245492 L7.18081156,0 L9.2178786,0 Z M7.84481129,1.99654529 L4.79822429,6.80370345 L8.96549862,6.80370345 L7.84481129,1.99654529 Z"></path></clipPath><clipPath id="i9"><path d="M6.50178921,0 C7.83880224,0 8.87235838,0.288191805 9.60245763,0.864575416 C10.3325569,1.44095903 10.6991088,2.25205555 10.6991088,3.29192289 C10.6991088,4.34367443 10.413679,5.23201824 9.84582405,5.95398328 C9.27796908,6.67594832 8.48177031,7.17805569 7.46323678,7.4603054 L9.43720883,10.9245492 L7.25892917,10.9245492 L5.44419688,7.72472881 L2.69806225,7.72472881 L2.06711228,10.9245492 L0,10.9245492 L2.20832489,0 L6.50178921,0 Z M6.28245898,1.71726663 L3.92991695,1.71726663 L3.046587,6.05499896 L5.49226926,6.05499896 C6.48977112,6.05499896 7.26493822,5.8351413 7.81176153,5.39245492 C8.35858484,4.94976853 8.63199649,4.31396393 8.63199649,3.48207006 C8.63199649,2.89974435 8.4306934,2.46002902 8.02508271,2.16292407 C7.61947201,1.86581911 7.03959895,1.71726663 6.28245898,1.71726663 Z"></path></clipPath><clipPath id="i10"><path d="M9.72263858,0 L9.35909122,1.71726663 L5.69657687,1.71726663 L3.84879481,10.9245492 L1.79670515,10.9245492 L3.66251435,1.71726663 L0,1.71726663 L0.348524745,0 L9.72263858,0 Z"></path></clipPath><clipPath id="i11"><path d="M3.89686719,0 L8.4427115,7.64748152 L9.97201404,0 L12.0090811,0 L9.80075619,10.9245492 L8.1122139,10.9245492 L3.58439673,3.27706764 L2.03706704,10.9245492 L0,10.9245492 L2.20832489,0 L3.89686719,0 Z"></path></clipPath><clipPath id="i12"><path d="M10.2724664,0 L9.92394166,1.69944034 L3.89686719,1.69944034 L3.32901222,4.5397637 L8.68006887,4.5397637 L8.34957126,6.20949354 L2.983492,6.20949354 L2.38258727,9.22213777 L8.63199649,9.22213777 L8.28347174,10.9245492 L0,10.9245492 L2.20832489,0 L10.2724664,0 Z"></path></clipPath><clipPath id="i13"><path d="M6.50178921,0 C7.83880224,0 8.87235838,0.288191805 9.60245763,0.864575416 C10.3325569,1.44095903 10.6991088,2.25205555 10.6991088,3.29192289 C10.6961042,4.34367443 10.413679,5.23201824 9.84582405,5.95398328 C9.27796908,6.67594832 8.48177031,7.17805569 7.46323678,7.4603054 L9.43720883,10.9245492 L7.25892917,10.9245492 L5.44419688,7.72472881 L2.69806225,7.72472881 L2.06711228,10.9245492 L0,10.9245492 L2.20832489,0 L6.50178921,0 Z M6.27945446,1.71726663 L3.92691243,1.71726663 L3.04358247,6.05499896 L5.48926474,6.05499896 C6.48977112,6.05499896 7.2619337,5.8351413 7.808757,5.39245492 C8.35558031,4.94976853 8.62899197,4.31396393 8.62899197,3.48207006 C8.62899197,2.89974435 8.42768888,2.46002902 8.02207819,2.16292407 C7.61646749,1.86581911 7.03659442,1.71726663 6.27945446,1.71726663 Z"></path></clipPath><clipPath id="i14"><path d="M6.35757207,0 C7.07264871,0 7.75167106,0.0802183376 8.39463912,0.240655013 C9.03760718,0.401091688 9.58743501,0.626891453 10.0501317,0.918054308 L9.24491932,2.52539211 C8.83329957,2.2550266 8.37060293,2.04705313 7.85682938,1.90147171 C7.34005131,1.75589028 6.8052461,1.68161404 6.2464047,1.68161404 C5.42616974,1.68161404 4.77719263,1.83016652 4.29646884,2.12727147 C3.81874958,2.42437643 3.57838768,2.81655496 3.57838768,3.30677814 C3.57838768,3.58902784 3.67753697,3.82076971 3.87884005,4.00794583 C4.07713861,4.19512195 4.32050503,4.34367443 4.60593478,4.45360326 C4.89136453,4.56353209 5.30598879,4.70020037 5.8528121,4.86657915 C6.54685707,5.06563947 7.11471204,5.25578664 7.55637702,5.44296276 C7.998042,5.63013888 8.37360745,5.90644649 8.68307339,6.26891453 C8.99253933,6.63435362 9.14877456,7.1067505 9.14877456,7.68907621 C9.14877456,8.4080702 8.94747147,9.0319906 8.54186078,9.56083742 C8.13625008,10.0926553 7.56238606,10.5026601 6.82026872,10.793823 C6.07815137,11.0849858 5.22787118,11.2305673 4.27243265,11.2305673 C3.42215245,11.2305673 2.60792654,11.1087542 1.82975491,10.8710703 C1.05158328,10.6304153 0.441664979,10.3243972 0,9.95004491 L0.868307339,8.35756236 C1.33100398,8.72300145 1.88083181,9.01119326 2.51779083,9.22510882 C3.15474985,9.43902439 3.80372696,9.54598217 4.46772669,9.54598217 C5.27894808,9.54598217 5.92191614,9.40931389 6.39963541,9.13300629 C6.87735467,8.85669868 7.11771656,8.47937539 7.11771656,8.00103641 C7.11771656,7.7306709 7.0215718,7.50487114 6.82627777,7.32363712 C6.63098373,7.1424031 6.39062184,6.99385062 6.09918304,6.87797969 C5.81074877,6.76210875 5.4081426,6.63435362 4.89136453,6.4887722 C4.17628789,6.28079873 3.59641483,6.08173841 3.15474985,5.88862019 C2.71308487,5.69550197 2.33451489,5.40731016 2.0190399,5.02404477 C1.70356492,4.63780833 1.54432516,4.13867201 1.54432516,3.5266358 C1.54432516,2.81952601 1.74562825,2.20154771 2.15123894,1.66972984 C2.55684964,1.13791197 3.12170009,0.727907137 3.84879481,0.436744282 C4.57588954,0.145581427 5.41114712,0 6.35757207,0 Z"></path></clipPath></defs><g clip-path="url(#i0)"><g transform="translate(62.187630814934835 0.0)"><g clip-path="url(#i1)"><polygon points="0,0 30.7122409,0 30.7122409,29.0330961 0,29.0330961 0,0" stroke="none" fill="gray"></polygon></g></g><g clip-path="url(#i2)"><polygon points="0,0 37.1419215,0 37.1419215,29.0301251 0,29.0301251 0,0" stroke="none" fill="gray"></polygon></g><g transform="translate(90.18678684761326 0.0)"><g clip-path="url(#i3)"><polygon points="0,0 30.3757343,0 30.3757343,28.9944725 0,28.9944725 0,0" stroke="none" fill="#FFBC00"></polygon></g></g><g transform="translate(118.603571669705 0.0)"><g clip-path="url(#i4)"><polygon points="0,0 30.3817433,0 30.3817433,29.0004146 0,29.0004146 0,0" stroke="none" fill="#FFBC00"></polygon></g></g><g transform="translate(149.96178515967864 0.0)"><g clip-path="url(#i5)"><polygon points="0,0 28.0382148,0 28.0382148,29.0004146 0,29.0004146 0,0" stroke="none" fill="#FFBC00"></polygon></g></g><g transform="translate(34.70525285260955 0.0)"><g clip-path="url(#i6)"><polygon points="0,0 30.8534535,0 30.8534535,29.0301251 0,29.0301251 0,0" stroke="none" fill="gray"></polygon></g></g></g><g transform="translate(90.27391803389371 31.7694327368203)"><g transform="translate(0.0 0.14855247702616392)"><g clip-path="url(#i7)"><polygon points="0,0 10.666059,0 10.666059,10.9245492 0,10.9245492 0,0" stroke="none" fill="gray"></polygon></g></g><g transform="translate(9.181824319762324 0.14855247702617813)"><g clip-path="url(#i8)"><polygon points="0,0 11.9640132,0 11.9640132,10.9245492 0,10.9245492 0,0" stroke="none" fill="gray"></polygon></g></g><g transform="translate(22.56697724664098 0.14855247702617813)"><g clip-path="url(#i9)"><polygon points="0,0 10.6991088,0 10.6991088,10.9245492 0,10.9245492 0,0" stroke="none" fill="gray"></polygon></g></g><g transform="translate(34.38376882047124 0.14855247702618257)"><g clip-path="url(#i10)"><polygon points="0,0 9.72263858,0 9.72263858,10.9245492 0,10.9245492 0,0" stroke="none" fill="gray"></polygon></g></g><g transform="translate(43.44541219363986 0.148552477026187)"><g clip-path="url(#i11)"><polygon points="0,0 12.0090811,0 12.0090811,10.9245492 0,10.9245492 0,0" stroke="none" fill="gray"></polygon></g></g><g transform="translate(56.22665586388495 0.15152352656670764)"><g clip-path="url(#i12)"><polygon points="0,0 10.2724664,0 10.2724664,10.9245492 0,10.9245492 0,0" stroke="none" fill="gray"></polygon></g></g><g transform="translate(66.8025791641348 0.14855247702617813)"><g clip-path="url(#i13)"><polygon points="0,0 10.6991088,0 10.6991088,10.9245492 0,10.9245492 0,0" stroke="none" fill="gray"></polygon></g></g><g transform="translate(77.6759503072041 0.0)"><g clip-path="url(#i14)"><polygon points="0,0 10.0501317,0 10.0501317,11.2305673 0,11.2305673 0,0" stroke="none" fill="gray"></polygon></g></g></g></svg>